<svg xmlns="http://www.w3.org/2000/svg" viewBox="-45.00 -853.00 7860.00 1101.00" width="190" height="26.61">
<title>愿与你纵横七海</title>
<defs><linearGradient id="ink" x1="0" y1="0" x2="1" y2="1"><stop offset="0" stop-color="#765561"/><stop offset="0.6" stop-color="#926b79"/><stop offset="1" stop-color="#a8808d"/></linearGradient></defs>
<g transform="scale(1,-1)" fill="url(#ink)"><path transform="translate(0,0)" d="M949 702Q959 693 959.0 688.5Q959 684 944 684H601Q576 638 533 585H762L790 628L851 582Q859 576 859.0 573.0Q859 570 852 565L822 544V459Q822 420 824.5 387.5Q827 355 827 354Q827 339 807.0 330.5Q787 322 781.5 322.0Q776 322 776 337V353H597V231Q597 195 591.5 181.0Q586 167 562.5 153.5Q539 140 532 140Q527 140 523.5 155.0Q520 170 502.0 181.5Q484 193 427 209L430 221Q501 207 522.0 207.0Q543 207 548.0 216.5Q553 226 553 254V353H377V346Q377 337 374.0 333.5Q371 330 356.5 324.0Q342 318 334.5 318.0Q327 318 327.0 328.0Q327 338 329.5 367.5Q332 397 332 448V514Q332 577 329 627L391 585H512Q529 632 537 684H197V476Q197 236 159.0 99.5Q121 -37 36 -148L25 -140Q92 -26 119.5 100.5Q147 227 147 435V639Q147 717 144 763L219 706H839L878 763ZM776 480V563H377V480ZM776 375V458H377V375ZM455 293Q462 288 462.0 285.0Q462 282 446.0 282.0Q430 282 413 271Q326 212 209 164L204 172Q336 252 399 330ZM675 313Q846 268 872.0 242.5Q898 217 898 193Q898 181 892.0 172.5Q886 164 880 164Q861 164 846 187Q833 204 786.5 236.0Q740 268 673 302ZM508 134Q647 91 647 39Q647 23 637.5 9.5Q628 -4 618.0 -4.0Q608 -4 602.0 17.5Q596 39 571.5 67.0Q547 95 504 124ZM762 56Q763 8 766.0 -14.0Q769 -36 774.5 -44.0Q780 -52 790.5 -55.0Q801 -58 801.0 -66.5Q801 -75 790.5 -94.0Q780 -113 762.0 -122.0Q744 -131 655.0 -132.0Q566 -133 506.0 -133.0Q446 -133 424.0 -130.5Q402 -128 389.0 -116.0Q376 -104 376 -81V32Q376 100 374 130L441 94Q451 89 451.0 86.0Q451 83 443 78L420 64V-58Q420 -76 430.0 -83.0Q440 -90 478.0 -93.5Q516 -97 601.0 -97.0Q686 -97 715.0 -83.5Q744 -70 748 56ZM289 110Q291 27 274.5 -24.0Q258 -75 233.5 -91.5Q209 -108 193.5 -108.0Q178 -108 171.5 -100.5Q165 -93 165.0 -80.0Q165 -67 183 -57Q216 -37 241.0 7.0Q266 51 275 111ZM790 109Q847 80 890.0 49.5Q933 19 949.0 -1.0Q965 -21 965.0 -39.5Q965 -58 955.0 -72.5Q945 -87 936.5 -87.0Q928 -87 923.5 -83.5Q919 -80 912 -63Q875 27 782 98Z"/><path transform="translate(1130.0,0)" d="M951 579Q961 570 961.0 566.0Q961 562 948 562H325L314 360H770L806 406L874 346Q881 340 881.0 336.5Q881 333 873 330L833 312Q832 231 825.0 100.5Q818 -30 796.0 -77.0Q774 -124 733.5 -144.5Q693 -165 682.5 -165.0Q672 -165 671 -156Q668 -132 658.0 -118.5Q648 -105 617.5 -90.5Q587 -76 522 -56L525 -42Q648 -72 689.0 -72.0Q730 -72 744.5 -56.5Q759 -41 766.5 1.0Q774 43 780.5 147.0Q787 251 785 338H326L301 308Q297 303 294.0 303.0Q291 303 284 308L222 353L268 384L281 675Q284 733 282 776L359 736Q367 732 367.0 729.5Q367 727 361 722L332 698L326 584H843L883 641ZM717 136Q724 129 724.0 126.5Q724 124 714 124H124Q85 124 57 113L29 150Q77 146 102 146H609L652 196Z"/><path transform="translate(2260.0,0)" d="M273 764 337 721Q348 714 348.0 710.0Q348 706 331.5 700.5Q315 695 301 664Q252 555 224 501L272 476Q278 473 278.0 470.5Q278 468 272 463L244 440V45Q244 -33 246.0 -74.5Q248 -116 248 -121Q248 -137 227.5 -145.5Q207 -154 201.5 -154.0Q196 -154 196.0 -140.0Q196 -126 197.5 -73.5Q199 -21 199 47V453Q121 308 45 219L32 228Q181 450 273 764ZM943 533Q952 524 952.0 520.0Q952 516 936 513Q907 509 874.0 482.5Q841 456 793 399L785 405L849 525H494Q385 342 307 274L297 284Q369 371 434.5 501.5Q500 632 540 760L606 721Q616 715 616.0 711.5Q616 708 604 704Q583 697 570.5 669.0Q558 641 506 546H840L881 597ZM681 424 660 409V-32Q660 -120 628.0 -141.5Q596 -163 589 -163Q583 -163 579.5 -145.0Q576 -127 551.5 -111.0Q527 -95 458 -74L461 -61Q550 -80 575.5 -80.0Q601 -80 607.5 -69.5Q614 -59 614 -32V394Q614 425 612 473L680 445Q692 440 692.0 436.0Q692 432 681 424ZM535 273Q543 268 543.0 264.5Q543 261 526.5 253.5Q510 246 491 214Q375 18 304 -50L295 -40Q337 16 392.5 125.5Q448 235 470 315ZM738 300Q807 250 875.0 172.0Q943 94 943 45Q943 21 932.0 6.0Q921 -9 905.5 -9.0Q890 -9 885 16Q876 74 836.5 146.0Q797 218 729 290Z"/><path transform="translate(3390.0,0)" d="M506 391Q656 302 656 234Q656 217 647.5 206.0Q639 195 630 195Q607 195 599.0 229.5Q591 264 566.0 304.5Q541 345 505 376Q488 190 423.0 70.0Q358 -50 223 -156L216 -145Q289 -76 341.0 1.0Q393 78 424.5 179.0Q456 280 464.0 430.0Q472 580 472.0 657.0Q472 734 470 759L545 723Q552 720 552.0 717.0Q552 714 545 708L522 690Q516 521 506 391ZM389 558Q397 553 397.0 549.5Q397 546 383.0 541.5Q369 537 361.0 531.0Q353 525 342 507Q265 387 127 216L384 245L386 232Q159 185 112 156Q107 153 104.0 153.0Q101 153 97 159L63 217Q93 225 112.0 239.0Q131 253 166.0 300.0Q201 347 249 430Q118 402 84 378Q80 375 76.5 375.0Q73 375 69 380L32 431Q65 443 86.5 470.0Q108 497 155.0 596.0Q202 695 218 752L278 715Q286 711 286.0 707.5Q286 704 271.5 698.0Q257 692 252.5 688.0Q248 684 241 672L175 568Q116 477 87 434L257 444Q306 528 332 598ZM977 -79 974 -86Q917 -86 897 -96Q892 -98 889 -98Q874 -98 821.0 15.5Q768 129 752 378Q731 173 658.5 44.5Q586 -84 442 -178L436 -167Q565 -56 623.0 55.5Q681 167 698.5 313.0Q716 459 720 747L798 713Q805 710 805.0 707.0Q805 704 798 698L772 677Q772 631 765 532L758 442Q758 406 776.5 311.5Q795 217 813.5 161.0Q832 105 856.0 60.5Q880 16 910.0 -18.5Q940 -53 977 -79ZM363 61 208 9Q172 -3 140.5 -18.5Q109 -34 101.5 -41.0Q94 -48 90.5 -48.0Q87 -48 84 -44L43 11L360 73Z"/><path transform="translate(4520.0,0)" d="M359 538Q367 529 367.0 523.5Q367 518 356 518H234V397Q284 372 319.5 343.0Q355 314 355 283Q355 269 348.0 259.5Q341 250 332.5 250.0Q324 250 316.0 258.0Q308 266 303.5 282.0Q299 298 280.5 325.5Q262 353 234 378V6Q234 -59 235 -84L236 -131Q236 -148 216.0 -156.5Q196 -165 190.0 -165.0Q184 -165 184 -149L188 -71Q190 -23 190 26V407Q136 236 50 73L37 80Q131 283 178 518H129Q90 518 62 507L34 544Q82 540 107 540H190V631Q190 698 186 777L250 740Q261 734 261.0 729.5Q261 725 251 719L234 709V540H271L308 591ZM958 487Q969 477 969.0 471.0Q969 465 953 465H653V361H795L819 398L876 356Q885 350 885.0 346.5Q885 343 876 337L855 323V167Q855 130 857.5 100.0Q860 70 860 64Q860 49 839.5 38.5Q819 28 813.5 28.0Q808 28 808 42V67H454V50Q454 38 450.5 33.0Q447 28 433.5 21.5Q420 15 412.5 15.0Q405 15 405 33L407 77Q408 100 408 170V323Q408 366 405 409L467 361H607V465H412Q375 465 348 455L321 491Q366 487 391 487H501V606H467Q429 606 400 596L372 632Q419 628 445 628H501V677Q501 725 498 775L567 744Q576 740 576.0 736.0Q576 732 568 727L548 714V628H713V673Q713 721 710 771L776 744Q786 740 786.0 736.5Q786 733 778 727L760 714V628H834L867 674L919 624Q927 616 927.0 611.0Q927 606 914 606H760V487H864L902 541ZM713 487V606H548V487ZM808 223V339H653V223ZM607 223V339H454V223ZM808 89V201H653V89ZM607 89V201H454V89ZM596 -22Q602 -27 602.0 -31.0Q602 -35 581.5 -37.0Q561 -39 543 -49Q406 -125 284 -172L280 -158Q439 -77 542 24ZM684 13Q781 -15 832.0 -36.0Q883 -57 902.0 -77.5Q921 -98 921.0 -128.0Q921 -158 903 -158Q895 -158 862.5 -125.5Q830 -93 790.0 -64.0Q750 -35 679 1Z"/><path transform="translate(5650.0,0)" d="M944 477Q956 470 956.0 465.5Q956 461 940 458L474 358V-32Q474 -59 499.0 -67.5Q524 -76 626.0 -76.0Q728 -76 767.5 -73.0Q807 -70 819.5 -64.0Q832 -58 840.0 -41.0Q848 -24 854.0 16.0Q860 56 865 132H880Q878 41 883.0 14.0Q888 -13 909 -25Q919 -31 919.0 -37.0Q919 -43 906.5 -64.0Q894 -85 874.5 -97.0Q855 -109 824.0 -111.5Q793 -114 738.0 -116.0Q683 -118 622.0 -118.0Q561 -118 513.0 -115.5Q465 -113 445.0 -92.5Q425 -72 425 -35V348L136 286Q102 279 80 265L37 293Q88 302 120 309L425 373V642Q425 707 422 746L501 710Q513 705 513.0 700.5Q513 696 504 689L474 666V383L833 458L865 527Z"/><path transform="translate(6780.0,0)" d="M439 610Q374 505 295 411L285 421Q329 480 382.5 583.5Q436 687 470 783L526 746Q534 741 534.0 737.0Q534 733 518.5 727.0Q503 721 497.0 708.0Q491 695 453 632H829L879 685L939 624Q945 618 945.0 614.0Q945 610 936 610ZM119 717Q265 674 265 619Q265 603 256.5 590.0Q248 577 234.5 577.0Q221 577 213 596Q185 665 113 706ZM296 551 198 171Q185 121 185.0 87.5Q185 54 197.0 -8.5Q209 -71 209.0 -95.0Q209 -119 200.5 -130.0Q192 -141 173.0 -141.0Q154 -141 148.5 -129.0Q143 -117 143.0 -95.5Q143 -74 147.5 -35.5Q152 3 152 32Q152 86 127.5 104.0Q103 122 36 126L38 141Q89 140 111.5 144.0Q134 148 144.5 159.0Q155 170 163 195L283 557ZM960 250Q965 245 965.0 241.0Q965 237 958 237H812Q812 115 809 24H838L878 71L932 16Q939 9 939.0 5.5Q939 2 929 2H809Q806 -72 785.0 -106.0Q764 -140 729.5 -155.5Q695 -171 689 -171Q684 -171 681.0 -157.0Q678 -143 668.0 -132.5Q658 -122 631.5 -111.5Q605 -101 546 -86L550 -73Q650 -90 690.0 -90.0Q730 -90 744.5 -70.0Q759 -50 762 2H414L394 -27Q391 -31 387.0 -31.0Q383 -31 378 -27L329 10L367 40L394 237H341Q302 237 274 226L246 263Q281 259 319 259H397L422 440Q428 485 432 528L477 481H754L785 525L844 479Q852 473 852.0 469.0Q852 465 845 461L816 442Q816 349 813 259H860L902 308ZM769 259Q771 305 771.0 354.5Q771 404 769 459H470L442 259ZM550 426Q587 409 620.5 385.0Q654 361 654 331Q654 312 645.0 299.5Q636 287 624.0 287.0Q612 287 608.5 293.5Q605 300 602.0 321.5Q599 343 587.0 365.5Q575 388 542 418ZM769 237H439L409 24H763Q767 110 769 237ZM541 210Q590 182 619.5 155.5Q649 129 649.0 106.0Q649 83 639.5 71.0Q630 59 613.0 59.0Q596 59 595 87Q592 142 534 201ZM38 499Q183 470 183 403Q183 385 174.0 372.0Q165 359 151.0 359.0Q137 359 131 382Q113 448 34 486Z"/></g>
</svg>